<svg version="1.1" viewBox="0.0 0.0 600.0 371.0" fill="none" stroke="none" stroke-linecap="square" stroke-miterlimit="10" width="600" height="371" xmlns:xlink="http://www.w3.org/1999/xlink" xmlns="http://www.w3.org/2000/svg"><path fill="#ffffff" d="M0 0L600.0 0L600.0 371.0L0 371.0L0 0Z" fill-rule="nonzero"/><path stroke="#333333" stroke-width="1.0" stroke-linecap="butt" d="M49.5 332.5L581.5 332.5" fill-rule="nonzero"/><path stroke="#cccccc" stroke-width="1.0" stroke-linecap="butt" d="M49.5 283.5L581.5 283.5" fill-rule="nonzero"/><path stroke="#cccccc" stroke-width="1.0" stroke-linecap="butt" d="M49.5 234.5L581.5 234.5" fill-rule="nonzero"/><path stroke="#cccccc" stroke-width="1.0" stroke-linecap="butt" d="M49.5 185.5L581.5 185.5" fill-rule="nonzero"/><path stroke="#cccccc" stroke-width="1.0" stroke-linecap="butt" d="M49.5 137.5L581.5 137.5" fill-rule="nonzero"/><path stroke="#cccccc" stroke-width="1.0" stroke-linecap="butt" d="M49.5 88.5L581.5 88.5" fill-rule="nonzero"/><clipPath id="id_0"><path d="M49.55 88.28333L581.45 88.28333L581.45 332.45L49.55 332.45L49.55 88.28333Z" clip-rule="nonzero"/></clipPath><path stroke="#6b46c1" stroke-width="2.0" stroke-linecap="butt" clip-path="url(#id_0)" d="M71.7125 234.78334C71.7125 234.78334 101.2625 218.50555 116.0375 210.36667C130.8125 202.22778 145.5875 190.83333 160.3625 185.95C175.1375 181.06667 189.9125 185.13611 204.6875 181.06667C219.4625 176.99722 234.2375 165.60278 249.0125 161.53334C263.7875 157.46388 278.5625 159.90555 293.3375 156.65C308.1125 153.39444 322.8875 146.06944 337.6625 142.0C352.4375 137.93056 367.2125 134.675 381.9875 132.23334C396.7625 129.79167 411.5375 128.97778 426.3125 127.35C441.0875 125.72222 455.8625 123.280556 470.6375 122.46667C485.4125 121.65278 500.1875 123.280556 514.9625 122.46667C529.7375 121.65278 559.2875 117.583336 559.2875 117.583336" fill-rule="nonzero"/><path stroke="#ddcbfa" stroke-width="2.0" stroke-linecap="butt" clip-path="url(#id_0)" d="M71.7125 244.55C71.7125 244.55 101.2625 237.225 116.0375 234.78334C130.8125 232.34166 145.5875 227.45833 160.3625 229.9C175.1375 232.34166 189.9125 246.99167 204.6875 249.43333C219.4625 251.875 234.2375 246.99167 249.0125 244.55C263.7875 242.10834 278.5625 238.0389 293.3375 234.78334C308.1125 231.52777 322.8875 225.01666 337.6625 225.01666C352.4375 225.01666 367.2125 231.52777 381.9875 234.78334C396.7625 238.0389 411.5375 242.92223 426.3125 244.55C441.0875 246.17778 455.8625 246.17778 470.6375 244.55C485.4125 242.92223 500.1875 237.225 514.9625 234.78334C529.7375 232.34166 559.2875 229.9 559.2875 229.9" fill-rule="nonzero"/><path fill="#6b46c1" clip-path="url(#id_0)" d="M76.2125 234.78334C76.2125 237.26862 74.197784 239.28334 71.7125 239.28334C69.22722 239.28334 67.2125 237.26862 67.2125 234.78334C67.2125 232.29805 69.22722 230.28334 71.7125 230.28334C74.197784 230.28334 76.2125 232.29805 76.2125 234.78334Z" fill-rule="nonzero"/><path fill="#6b46c1" clip-path="url(#id_0)" d="M120.5375 210.36667C120.5375 212.85194 118.52278 214.86667 116.0375 214.86667C113.552216 214.86667 111.5375 212.85194 111.5375 210.36667C111.5375 207.88138 113.552216 205.86667 116.0375 205.86667C118.52278 205.86667 120.5375 207.88138 120.5375 210.36667Z" fill-rule="nonzero"/><path fill="#6b46c1" clip-path="url(#id_0)" d="M164.8625 185.95C164.8625 188.43529 162.84778 190.45 160.3625 190.45C157.87721 190.45 155.8625 188.43529 155.8625 185.95C155.8625 183.46472 157.87721 181.45 160.3625 181.45C162.84778 181.45 164.8625 183.46472 164.8625 185.95Z" fill-rule="nonzero"/><path fill="#6b46c1" clip-path="url(#id_0)" d="M209.1875 181.06667C209.1875 183.55194 207.17278 185.56667 204.6875 185.56667C202.20222 185.56667 200.1875 183.55194 200.1875 181.06667C200.1875 178.58139 202.20222 176.56667 204.6875 176.56667C207.17278 176.56667 209.1875 178.58139 209.1875 181.06667Z" fill-rule="nonzero"/><path fill="#6b46c1" clip-path="url(#id_0)" d="M253.5125 161.53334C253.5125 164.01862 251.49779 166.03334 249.0125 166.03334C246.52722 166.03334 244.5125 164.01862 244.5125 161.53334C244.5125 159.04805 246.52722 157.03334 249.0125 157.03334C251.49779 157.03334 253.5125 159.04805 253.5125 161.53334Z" fill-rule="nonzero"/><path fill="#6b46c1" clip-path="url(#id_0)" d="M297.8375 156.65C297.8375 159.13528 295.82278 161.15 293.3375 161.15C290.8522 161.15 288.8375 159.13528 288.8375 156.65C288.8375 154.16472 290.8522 152.15 293.3375 152.15C295.82278 152.15 297.8375 154.16472 297.8375 156.65Z" fill-rule="nonzero"/><path fill="#6b46c1" clip-path="url(#id_0)" d="M342.1625 142.0C342.1625 144.48528 340.1478 146.5 337.6625 146.5C335.17722 146.5 333.1625 144.48528 333.1625 142.0C333.1625 139.51472 335.17722 137.5 337.6625 137.5C340.1478 137.5 342.1625 139.51472 342.1625 142.0Z" fill-rule="nonzero"/><path fill="#6b46c1" clip-path="url(#id_0)" d="M386.4875 132.23334C386.4875 134.71861 384.47278 136.73334 381.9875 136.73334C379.50223 136.73334 377.4875 134.71861 377.4875 132.23334C377.4875 129.74805 379.50223 127.73333 381.9875 127.73333C384.47278 127.73333 386.4875 129.74805 386.4875 132.23334Z" fill-rule="nonzero"/><path fill="#6b46c1" clip-path="url(#id_0)" d="M430.8125 127.35C430.8125 129.83528 428.7978 131.85 426.3125 131.85C423.8272 131.85 421.8125 129.83528 421.8125 127.35C421.8125 124.864716 423.8272 122.85 426.3125 122.85C428.7978 122.85 430.8125 124.864716 430.8125 127.35Z" fill-rule="nonzero"/><path fill="#6b46c1" clip-path="url(#id_0)" d="M475.1375 122.46667C475.1375 124.95195 473.12277 126.96667 470.6375 126.96667C468.15222 126.96667 466.1375 124.95195 466.1375 122.46667C466.1375 119.981384 468.15222 117.96667 470.6375 117.96667C473.12277 117.96667 475.1375 119.981384 475.1375 122.46667Z" fill-rule="nonzero"/><path fill="#6b46c1" clip-path="url(#id_0)" d="M519.4625 122.46667C519.4625 124.95195 517.44775 126.96667 514.9625 126.96667C512.47723 126.96667 510.4625 124.95195 510.4625 122.46667C510.4625 119.981384 512.47723 117.96667 514.9625 117.96667C517.44775 117.96667 519.4625 119.981384 519.4625 122.46667Z" fill-rule="nonzero"/><path fill="#6b46c1" clip-path="url(#id_0)" d="M563.7875 117.583336C563.7875 120.06861 561.77277 122.083336 559.2875 122.083336C556.80225 122.083336 554.7875 120.06861 554.7875 117.583336C554.7875 115.09805 556.80225 113.083336 559.2875 113.083336C561.77277 113.083336 563.7875 115.09805 563.7875 117.583336Z" fill-rule="nonzero"/><path fill="#ddcbfa" clip-path="url(#id_0)" d="M76.2125 244.55C76.2125 247.03528 74.197784 249.05 71.7125 249.05C69.22722 249.05 67.2125 247.03528 67.2125 244.55C67.2125 242.06471 69.22722 240.05 71.7125 240.05C74.197784 240.05 76.2125 242.06471 76.2125 244.55Z" fill-rule="nonzero"/><path fill="#ddcbfa" clip-path="url(#id_0)" d="M120.5375 234.78334C120.5375 237.26862 118.52278 239.28334 116.0375 239.28334C113.552216 239.28334 111.5375 237.26862 111.5375 234.78334C111.5375 232.29805 113.552216 230.28334 116.0375 230.28334C118.52278 230.28334 120.5375 232.29805 120.5375 234.78334Z" fill-rule="nonzero"/><path fill="#ddcbfa" clip-path="url(#id_0)" d="M164.8625 229.9C164.8625 232.38528 162.84778 234.4 160.3625 234.4C157.87721 234.4 155.8625 232.38528 155.8625 229.9C155.8625 227.41472 157.87721 225.4 160.3625 225.4C162.84778 225.4 164.8625 227.41472 164.8625 229.9Z" fill-rule="nonzero"/><path fill="#ddcbfa" clip-path="url(#id_0)" d="M209.1875 249.43333C209.1875 251.91861 207.17278 253.93333 204.6875 253.93333C202.20222 253.93333 200.1875 251.91861 200.1875 249.43333C200.1875 246.94806 202.20222 244.93333 204.6875 244.93333C207.17278 244.93333 209.1875 246.94806 209.1875 249.43333Z" fill-rule="nonzero"/><path fill="#ddcbfa" clip-path="url(#id_0)" d="M253.5125 244.55C253.5125 247.03528 251.49779 249.05 249.0125 249.05C246.52722 249.05 244.5125 247.03528 244.5125 244.55C244.5125 242.06471 246.52722 240.05 249.0125 240.05C251.49779 240.05 253.5125 242.06471 253.5125 244.55Z" fill-rule="nonzero"/><path fill="#ddcbfa" clip-path="url(#id_0)" d="M297.8375 234.78334C297.8375 237.26862 295.82278 239.28334 293.3375 239.28334C290.8522 239.28334 288.8375 237.26862 288.8375 234.78334C288.8375 232.29805 290.8522 230.28334 293.3375 230.28334C295.82278 230.28334 297.8375 232.29805 297.8375 234.78334Z" fill-rule="nonzero"/><path fill="#ddcbfa" clip-path="url(#id_0)" d="M342.1625 225.01666C342.1625 227.50195 340.1478 229.51666 337.6625 229.51666C335.17722 229.51666 333.1625 227.50195 333.1625 225.01666C333.1625 222.53139 335.17722 220.51666 337.6625 220.51666C340.1478 220.51666 342.1625 222.53139 342.1625 225.01666Z" fill-rule="nonzero"/><path fill="#ddcbfa" clip-path="url(#id_0)" d="M386.4875 234.78334C386.4875 237.26862 384.47278 239.28334 381.9875 239.28334C379.50223 239.28334 377.4875 237.26862 377.4875 234.78334C377.4875 232.29805 379.50223 230.28334 381.9875 230.28334C384.47278 230.28334 386.4875 232.29805 386.4875 234.78334Z" fill-rule="nonzero"/><path fill="#ddcbfa" clip-path="url(#id_0)" d="M430.8125 244.55C430.8125 247.03528 428.7978 249.05 426.3125 249.05C423.8272 249.05 421.8125 247.03528 421.8125 244.55C421.8125 242.06471 423.8272 240.05 426.3125 240.05C428.7978 240.05 430.8125 242.06471 430.8125 244.55Z" fill-rule="nonzero"/><path fill="#ddcbfa" clip-path="url(#id_0)" d="M475.1375 244.55C475.1375 247.03528 473.12277 249.05 470.6375 249.05C468.15222 249.05 466.1375 247.03528 466.1375 244.55C466.1375 242.06471 468.15222 240.05 470.6375 240.05C473.12277 240.05 475.1375 242.06471 475.1375 244.55Z" fill-rule="nonzero"/><path fill="#ddcbfa" clip-path="url(#id_0)" d="M519.4625 234.78334C519.4625 237.26862 517.44775 239.28334 514.9625 239.28334C512.47723 239.28334 510.4625 237.26862 510.4625 234.78334C510.4625 232.29805 512.47723 230.28334 514.9625 230.28334C517.44775 230.28334 519.4625 232.29805 519.4625 234.78334Z" fill-rule="nonzero"/><path fill="#ddcbfa" clip-path="url(#id_0)" d="M563.7875 229.9C563.7875 232.38528 561.77277 234.4 559.2875 234.4C556.80225 234.4 554.7875 232.38528 554.7875 229.9C554.7875 227.41472 556.80225 225.4 559.2875 225.4C561.77277 225.4 563.7875 227.41472 563.7875 229.9Z" fill-rule="nonzero"/><path fill="#000000" d="M26.05 332.21564Q26.05 330.6844 26.3625 329.7625Q26.675 328.825 27.284374 328.325Q27.909374 327.825 28.846874 327.825Q29.534374 327.825 30.05 328.10626Q30.58125 328.3875 30.925 328.91876Q31.26875 329.4344 31.45625 330.1844Q31.64375 330.9344 31.64375 332.21564Q31.64375 333.73126 31.33125 334.65314Q31.034374 335.575 30.409374 336.09064Q29.8 336.59064 28.846874 336.59064Q27.6125 336.59064 26.89375 335.7Q26.05 334.6375 26.05 332.21564ZM27.128124 332.21564Q27.128124 334.325 27.628124 335.02814Q28.128124 335.73126 28.846874 335.73126Q29.58125 335.73126 30.065624 335.02814Q30.565624 334.325 30.565624 332.21564Q30.565624 330.09064 30.065624 329.40314Q29.58125 328.7 28.83125 328.7Q28.1125 328.7 27.675 329.3094Q27.128124 330.09064 27.128124 332.21564ZM33.253124 329.91876Q33.253124 328.9969 33.70625 328.35626Q34.175 327.71564 35.05 327.71564Q35.8625 327.71564 36.39375 328.29376Q36.925 328.8719 36.925 329.98126Q36.925 331.075 36.378124 331.66876Q35.846874 332.2469 35.065624 332.2469Q34.284374 332.2469 33.76875 331.66876Q33.253124 331.09064 33.253124 329.91876ZM35.08125 328.4344Q34.690624 328.4344 34.425 328.77814Q34.175 329.1219 34.175 330.02814Q34.175 330.85626 34.425 331.2Q34.690624 331.52814 35.08125 331.52814Q35.4875 331.52814 35.7375 331.1844Q36.003124 330.84064 36.003124 329.95Q36.003124 329.10626 35.7375 328.77814Q35.471874 328.4344 35.08125 328.4344ZM35.08125 336.7625L39.784374 327.71564L40.64375 327.71564L35.95625 336.7625L35.08125 336.7625ZM38.8 334.4344Q38.8 333.5125 39.253124 332.8719Q39.721874 332.23126 40.6125 332.23126Q41.425 332.23126 41.95625 332.8094Q42.4875 333.3719 42.4875 334.4969Q42.4875 335.59064 41.940624 336.1844Q41.409374 336.7625 40.6125 336.7625Q39.846874 336.7625 39.315624 336.1844Q38.8 335.60626 38.8 334.4344ZM40.64375 332.95Q40.2375 332.95 39.971874 333.29376Q39.721874 333.6375 39.721874 334.54376Q39.721874 335.35626 39.9875 335.7Q40.253124 336.04376 40.64375 336.04376Q41.034374 336.04376 41.3 335.7Q41.565624 335.35626 41.565624 334.45Q41.565624 333.6219 41.3 333.29376Q41.034374 332.95 40.64375 332.95Z" fill-rule="nonzero"/><path fill="#000000" d="M23.01875 287.61667L21.971874 287.61667L21.971874 280.89792Q21.58125 281.2573 20.95625 281.6323Q20.346874 281.99167 19.8625 282.16354L19.8625 281.14792Q20.7375 280.72604 21.39375 280.14792Q22.065624 279.55417 22.346874 278.99167L23.01875 278.99167L23.01875 287.61667ZM26.05 283.3823Q26.05 281.85104 26.3625 280.92917Q26.675 279.99167 27.284374 279.49167Q27.909374 278.99167 28.846874 278.99167Q29.534374 278.99167 30.05 279.27292Q30.58125 279.55417 30.925 280.08542Q31.26875 280.60104 31.45625 281.35104Q31.64375 282.10104 31.64375 283.3823Q31.64375 284.89792 31.33125 285.8198Q31.034374 286.74167 30.409374 287.2573Q29.8 287.7573 28.846874 287.7573Q27.6125 287.7573 26.89375 286.86667Q26.05 285.80417 26.05 283.3823ZM27.128124 283.3823Q27.128124 285.49167 27.628124 286.1948Q28.128124 286.89792 28.846874 286.89792Q29.58125 286.89792 30.065624 286.1948Q30.565624 285.49167 30.565624 283.3823Q30.565624 281.2573 30.065624 280.5698Q29.58125 279.86667 28.83125 279.86667Q28.1125 279.86667 27.675 280.47604Q27.128124 281.2573 27.128124 283.3823ZM33.253124 281.08542Q33.253124 280.16354 33.70625 279.52292Q34.175 278.8823 35.05 278.8823Q35.8625 278.8823 36.39375 279.46042Q36.925 280.03854 36.925 281.14792Q36.925 282.24167 36.378124 282.83542Q35.846874 283.41354 35.065624 283.41354Q34.284374 283.41354 33.76875 282.83542Q33.253124 282.2573 33.253124 281.08542ZM35.08125 279.60104Q34.690624 279.60104 34.425 279.9448Q34.175 280.28854 34.175 281.1948Q34.175 282.02292 34.425 282.36667Q34.690624 282.6948 35.08125 282.6948Q35.4875 282.6948 35.7375 282.35104Q36.003124 282.0073 36.003124 281.11667Q36.003124 280.27292 35.7375 279.9448Q35.471874 279.60104 35.08125 279.60104ZM35.08125 287.92917L39.784374 278.8823L40.64375 278.8823L35.95625 287.92917L35.08125 287.92917ZM38.8 285.60104Q38.8 284.67917 39.253124 284.03854Q39.721874 283.39792 40.6125 283.39792Q41.425 283.39792 41.95625 283.97604Q42.4875 284.53854 42.4875 285.66354Q42.4875 286.7573 41.940624 287.35104Q41.409374 287.92917 40.6125 287.92917Q39.846874 287.92917 39.315624 287.35104Q38.8 286.77292 38.8 285.60104ZM40.64375 284.11667Q40.2375 284.11667 39.971874 284.46042Q39.721874 284.80417 39.721874 285.71042Q39.721874 286.52292 39.9875 286.86667Q40.253124 287.21042 40.64375 287.21042Q41.034374 287.21042 41.3 286.86667Q41.565624 286.52292 41.565624 285.61667Q41.565624 284.78854 41.3 284.46042Q41.034374 284.11667 40.64375 284.11667Z" fill-rule="nonzero"/><path fill="#000000" d="M24.596874 237.76772L24.596874 238.78334L18.909374 238.78334Q18.909374 238.40834 19.034374 238.04897Q19.253124 237.47084 19.721874 236.90834Q20.20625 236.34584 21.1125 235.61147Q22.51875 234.45522 23.003124 233.78334Q23.503124 233.11147 23.503124 232.51772Q23.503124 231.89272 23.05 231.47084Q22.596874 231.03334 21.878124 231.03334Q21.1125 231.03334 20.659374 231.48647Q20.20625 231.93959 20.190624 232.75209L19.1125 232.64272Q19.221874 231.42397 19.940624 230.79897Q20.675 230.15834 21.909374 230.15834Q23.14375 230.15834 23.8625 230.84584Q24.58125 231.53334 24.58125 232.54897Q24.58125 233.06459 24.3625 233.56459Q24.159374 234.04897 23.659374 234.61147Q23.175 235.15834 22.05 236.11147Q21.096874 236.90834 20.815624 237.20522Q20.55 237.48647 20.378124 237.76772L24.596874 237.76772ZM26.05 234.54897Q26.05 233.01772 26.3625 232.09584Q26.675 231.15834 27.284374 230.65834Q27.909374 230.15834 28.846874 230.15834Q29.534374 230.15834 30.05 230.43959Q30.58125 230.72084 30.925 231.25209Q31.26875 231.76772 31.45625 232.51772Q31.64375 233.26772 31.64375 234.54897Q31.64375 236.06459 31.33125 236.98647Q31.034374 237.90834 30.409374 238.42397Q29.8 238.92397 28.846874 238.92397Q27.6125 238.92397 26.89375 238.03334Q26.05 236.97084 26.05 234.54897ZM27.128124 234.54897Q27.128124 236.65834 27.628124 237.36147Q28.128124 238.06459 28.846874 238.06459Q29.58125 238.06459 30.065624 237.36147Q30.565624 236.65834 30.565624 234.54897Q30.565624 232.42397 30.065624 231.73647Q29.58125 231.03334 28.83125 231.03334Q28.1125 231.03334 27.675 231.64272Q27.128124 232.42397 27.128124 234.54897ZM33.253124 232.25209Q33.253124 231.33022 33.70625 230.68959Q34.175 230.04897 35.05 230.04897Q35.8625 230.04897 36.39375 230.62709Q36.925 231.20522 36.925 232.31459Q36.925 233.40834 36.378124 234.00209Q35.846874 234.58022 35.065624 234.58022Q34.284374 234.58022 33.76875 234.00209Q33.253124 233.42397 33.253124 232.25209ZM35.08125 230.76772Q34.690624 230.76772 34.425 231.11147Q34.175 231.45522 34.175 232.36147Q34.175 233.18959 34.425 233.53334Q34.690624 233.86147 35.08125 233.86147Q35.4875 233.86147 35.7375 233.51772Q36.003124 233.17397 36.003124 232.28334Q36.003124 231.43959 35.7375 231.11147Q35.471874 230.76772 35.08125 230.76772ZM35.08125 239.09584L39.784374 230.04897L40.64375 230.04897L35.95625 239.09584L35.08125 239.09584ZM38.8 236.76772Q38.8 235.84584 39.253124 235.20522Q39.721874 234.56459 40.6125 234.56459Q41.425 234.56459 41.95625 235.14272Q42.4875 235.70522 42.4875 236.83022Q42.4875 237.92397 41.940624 238.51772Q41.409374 239.09584 40.6125 239.09584Q39.846874 239.09584 39.315624 238.51772Q38.8 237.93959 38.8 236.76772ZM40.64375 235.28334Q40.2375 235.28334 39.971874 235.62709Q39.721874 235.97084 39.721874 236.87709Q39.721874 237.68959 39.9875 238.03334Q40.253124 238.37709 40.64375 238.37709Q41.034374 238.37709 41.3 238.03334Q41.565624 237.68959 41.565624 236.78334Q41.565624 235.95522 41.3 235.62709Q41.034374 235.28334 40.64375 235.28334Z" fill-rule="nonzero"/><path fill="#000000" d="M19.05 187.68437L20.1125 187.54375Q20.284374 188.43437 20.721874 188.84062Q21.159374 189.23125 21.784374 189.23125Q22.534374 189.23125 23.05 188.71562Q23.565624 188.2 23.565624 187.43437Q23.565624 186.71562 23.08125 186.24687Q22.6125 185.7625 21.878124 185.7625Q21.58125 185.7625 21.128124 185.8875L21.253124 184.95Q21.3625 184.96562 21.425 184.96562Q22.096874 184.96562 22.628124 184.62187Q23.175 184.2625 23.175 183.52812Q23.175 182.95 22.784374 182.575Q22.39375 182.18437 21.76875 182.18437Q21.159374 182.18437 20.7375 182.575Q20.33125 182.96562 20.221874 183.73125L19.159374 183.54375Q19.346874 182.49687 20.034374 181.91875Q20.721874 181.325 21.7375 181.325Q22.440624 181.325 23.034374 181.6375Q23.628124 181.93437 23.940624 182.45Q24.253124 182.96562 24.253124 183.55937Q24.253124 184.10625 23.95625 184.575Q23.659374 185.02812 23.08125 185.29375Q23.83125 185.46562 24.253124 186.02812Q24.675 186.575 24.675 187.41875Q24.675 188.54375 23.846874 189.325Q23.034374 190.10625 21.784374 190.10625Q20.659374 190.10625 19.909374 189.43437Q19.159374 188.74687 19.05 187.68437ZM26.05 185.71562Q26.05 184.18437 26.3625 183.2625Q26.675 182.325 27.284374 181.825Q27.909374 181.325 28.846874 181.325Q29.534374 181.325 30.05 181.60625Q30.58125 181.8875 30.925 182.41875Q31.26875 182.93437 31.45625 183.68437Q31.64375 184.43437 31.64375 185.71562Q31.64375 187.23125 31.33125 188.15312Q31.034374 189.075 30.409374 189.59062Q29.8 190.09062 28.846874 190.09062Q27.6125 190.09062 26.89375 189.2Q26.05 188.1375 26.05 185.71562ZM27.128124 185.71562Q27.128124 187.825 27.628124 188.52812Q28.128124 189.23125 28.846874 189.23125Q29.58125 189.23125 30.065624 188.52812Q30.565624 187.825 30.565624 185.71562Q30.565624 183.59062 30.065624 182.90312Q29.58125 182.2 28.83125 182.2Q28.1125 182.2 27.675 182.80937Q27.128124 183.59062 27.128124 185.71562ZM33.253124 183.41875Q33.253124 182.49687 33.70625 181.85625Q34.175 181.21562 35.05 181.21562Q35.8625 181.21562 36.39375 181.79375Q36.925 182.37187 36.925 183.48125Q36.925 184.575 36.378124 185.16875Q35.846874 185.74687 35.065624 185.74687Q34.284374 185.74687 33.76875 185.16875Q33.253124 184.59062 33.253124 183.41875ZM35.08125 181.93437Q34.690624 181.93437 34.425 182.27812Q34.175 182.62187 34.175 183.52812Q34.175 184.35625 34.425 184.7Q34.690624 185.02812 35.08125 185.02812Q35.4875 185.02812 35.7375 184.68437Q36.003124 184.34062 36.003124 183.45Q36.003124 182.60625 35.7375 182.27812Q35.471874 181.93437 35.08125 181.93437ZM35.08125 190.2625L39.784374 181.21562L40.64375 181.21562L35.95625 190.2625L35.08125 190.2625ZM38.8 187.93437Q38.8 187.0125 39.253124 186.37187Q39.721874 185.73125 40.6125 185.73125Q41.425 185.73125 41.95625 186.30937Q42.4875 186.87187 42.4875 187.99687Q42.4875 189.09062 41.940624 189.68437Q41.409374 190.2625 40.6125 190.2625Q39.846874 190.2625 39.315624 189.68437Q38.8 189.10625 38.8 187.93437ZM40.64375 186.45Q40.2375 186.45 39.971874 186.79375Q39.721874 187.1375 39.721874 188.04375Q39.721874 188.85625 39.9875 189.2Q40.253124 189.54375 40.64375 189.54375Q41.034374 189.54375 41.3 189.2Q41.565624 188.85625 41.565624 187.95Q41.565624 187.12187 41.3 186.79375Q41.034374 186.45 40.64375 186.45Z" fill-rule="nonzero"/><path fill="#000000" d="M22.425 141.11667L22.425 139.05417L18.70625 139.05417L18.70625 138.08542L22.628124 132.52292L23.4875 132.52292L23.4875 138.08542L24.64375 138.08542L24.64375 139.05417L23.4875 139.05417L23.4875 141.11667L22.425 141.11667ZM22.425 138.08542L22.425 134.22604L19.7375 138.08542L22.425 138.08542ZM26.05 136.8823Q26.05 135.35104 26.3625 134.42917Q26.675 133.49167 27.284374 132.99167Q27.909374 132.49167 28.846874 132.49167Q29.534374 132.49167 30.05 132.77292Q30.58125 133.05417 30.925 133.58542Q31.26875 134.10104 31.45625 134.85104Q31.64375 135.60104 31.64375 136.8823Q31.64375 138.39792 31.33125 139.3198Q31.034374 140.24167 30.409374 140.7573Q29.8 141.2573 28.846874 141.2573Q27.6125 141.2573 26.89375 140.36667Q26.05 139.30417 26.05 136.8823ZM27.128124 136.8823Q27.128124 138.99167 27.628124 139.6948Q28.128124 140.39792 28.846874 140.39792Q29.58125 140.39792 30.065624 139.6948Q30.565624 138.99167 30.565624 136.8823Q30.565624 134.7573 30.065624 134.0698Q29.58125 133.36667 28.83125 133.36667Q28.1125 133.36667 27.675 133.97604Q27.128124 134.7573 27.128124 136.8823ZM33.253124 134.58542Q33.253124 133.66354 33.70625 133.02292Q34.175 132.3823 35.05 132.3823Q35.8625 132.3823 36.39375 132.96042Q36.925 133.53854 36.925 134.64792Q36.925 135.74167 36.378124 136.33542Q35.846874 136.91354 35.065624 136.91354Q34.284374 136.91354 33.76875 136.33542Q33.253124 135.7573 33.253124 134.58542ZM35.08125 133.10104Q34.690624 133.10104 34.425 133.4448Q34.175 133.78854 34.175 134.6948Q34.175 135.52292 34.425 135.86667Q34.690624 136.1948 35.08125 136.1948Q35.4875 136.1948 35.7375 135.85104Q36.003124 135.5073 36.003124 134.61667Q36.003124 133.77292 35.7375 133.4448Q35.471874 133.10104 35.08125 133.10104ZM35.08125 141.42917L39.784374 132.3823L40.64375 132.3823L35.95625 141.42917L35.08125 141.42917ZM38.8 139.10104Q38.8 138.17917 39.253124 137.53854Q39.721874 136.89792 40.6125 136.89792Q41.425 136.89792 41.95625 137.47604Q42.4875 138.03854 42.4875 139.16354Q42.4875 140.2573 41.940624 140.85104Q41.409374 141.42917 40.6125 141.42917Q39.846874 141.42917 39.315624 140.85104Q38.8 140.27292 38.8 139.10104ZM40.64375 137.61667Q40.2375 137.61667 39.971874 137.96042Q39.721874 138.30417 39.721874 139.21042Q39.721874 140.02292 39.9875 140.36667Q40.253124 140.71042 40.64375 140.71042Q41.034374 140.71042 41.3 140.36667Q41.565624 140.02292 41.565624 139.11667Q41.565624 138.28854 41.3 137.96042Q41.034374 137.61667 40.64375 137.61667Z" fill-rule="nonzero"/><path fill="#000000" d="M19.05 90.03333L20.159374 89.93958Q20.284374 90.75208 20.721874 91.15833Q21.175 91.56458 21.815624 91.56458Q22.565624 91.56458 23.096874 90.98646Q23.628124 90.40833 23.628124 89.47083Q23.628124 88.56458 23.1125 88.04896Q22.6125 87.51771 21.784374 87.51771Q21.284374 87.51771 20.8625 87.75208Q20.45625 87.98646 20.221874 88.34583L19.2375 88.22083L20.065624 83.81458L24.346874 83.81458L24.346874 84.81458L20.909374 84.81458L20.45625 87.12708Q21.221874 86.58021 22.065624 86.58021Q23.190624 86.58021 23.95625 87.36146Q24.7375 88.14271 24.7375 89.37708Q24.7375 90.53333 24.065624 91.39271Q23.2375 92.42396 21.815624 92.42396Q20.64375 92.42396 19.89375 91.76771Q19.159374 91.11146 19.05 90.03333ZM26.05 88.04896Q26.05 86.51771 26.3625 85.59583Q26.675 84.65833 27.284374 84.15833Q27.909374 83.65833 28.846874 83.65833Q29.534374 83.65833 30.05 83.93958Q30.58125 84.22083 30.925 84.75208Q31.26875 85.26771 31.45625 86.01771Q31.64375 86.76771 31.64375 88.04896Q31.64375 89.56458 31.33125 90.48646Q31.034374 91.40833 30.409374 91.92396Q29.8 92.42396 28.846874 92.42396Q27.6125 92.42396 26.89375 91.53333Q26.05 90.47083 26.05 88.04896ZM27.128124 88.04896Q27.128124 90.15833 27.628124 90.86146Q28.128124 91.56458 28.846874 91.56458Q29.58125 91.56458 30.065624 90.86146Q30.565624 90.15833 30.565624 88.04896Q30.565624 85.92396 30.065624 85.23646Q29.58125 84.53333 28.83125 84.53333Q28.1125 84.53333 27.675 85.14271Q27.128124 85.92396 27.128124 88.04896ZM33.253124 85.75208Q33.253124 84.83021 33.70625 84.18958Q34.175 83.54896 35.05 83.54896Q35.8625 83.54896 36.39375 84.12708Q36.925 84.70521 36.925 85.81458Q36.925 86.90833 36.378124 87.50208Q35.846874 88.08021 35.065624 88.08021Q34.284374 88.08021 33.76875 87.50208Q33.253124 86.92396 33.253124 85.75208ZM35.08125 84.26771Q34.690624 84.26771 34.425 84.61146Q34.175 84.95521 34.175 85.86146Q34.175 86.68958 34.425 87.03333Q34.690624 87.36146 35.08125 87.36146Q35.4875 87.36146 35.7375 87.01771Q36.003124 86.67396 36.003124 85.78333Q36.003124 84.93958 35.7375 84.61146Q35.471874 84.26771 35.08125 84.26771ZM35.08125 92.59583L39.784374 83.54896L40.64375 83.54896L35.95625 92.59583L35.08125 92.59583ZM38.8 90.26771Q38.8 89.34583 39.253124 88.70521Q39.721874 88.06458 40.6125 88.06458Q41.425 88.06458 41.95625 88.64271Q42.4875 89.20521 42.4875 90.33021Q42.4875 91.42396 41.940624 92.01771Q41.409374 92.59583 40.6125 92.59583Q39.846874 92.59583 39.315624 92.01771Q38.8 91.43958 38.8 90.26771ZM40.64375 88.78333Q40.2375 88.78333 39.971874 89.12708Q39.721874 89.47083 39.721874 90.37708Q39.721874 91.18958 39.9875 91.53333Q40.253124 91.87708 40.64375 91.87708Q41.034374 91.87708 41.3 91.53333Q41.565624 91.18958 41.565624 90.28333Q41.565624 89.45521 41.3 89.12708Q41.034374 88.78333 40.64375 88.78333Z" fill-rule="nonzero"/><path fill="#000000" d="M62.05625 347.0125L63.0875 346.8719Q63.11875 347.85626 63.446877 348.21564Q63.775 348.575 64.36875 348.575Q64.79063 348.575 65.10313 348.3875Q65.41563 348.1844 65.525 347.85626Q65.65 347.5125 65.65 346.77814L65.65 340.85626L66.775 340.85626L66.775 346.71564Q66.775 347.79376 66.50938 348.3875Q66.25938 348.98126 65.69688 349.29376Q65.13438 349.59064 64.36875 349.59064Q63.24375 349.59064 62.634377 348.95Q62.040627 348.29376 62.05625 347.0125ZM72.57188 348.6844Q71.97813 349.1844 71.43125 349.3875Q70.9 349.59064 70.275 349.59064Q69.24375 349.59064 68.69688 349.09064Q68.15 348.59064 68.15 347.8094Q68.15 347.35626 68.35313 346.98126Q68.55625 346.59064 68.9 346.3719Q69.24375 346.1375 69.66563 346.02814Q69.9625 345.9344 70.60313 345.85626Q71.86875 345.71564 72.47813 345.4969Q72.47813 345.27814 72.47813 345.23126Q72.47813 344.575 72.18125 344.3094Q71.775 343.96564 70.97813 343.96564Q70.24375 343.96564 69.88438 344.23126Q69.525 344.48126 69.35313 345.1375L68.32188 344.9969Q68.4625 344.34064 68.79063 343.9344Q69.11875 343.52814 69.72813 343.3094Q70.3375 343.09064 71.13438 343.09064Q71.93125 343.09064 72.43125 343.27814Q72.93125 343.46564 73.16563 343.7469Q73.4 344.02814 73.49375 344.46564Q73.54063 344.73126 73.54063 345.4344L73.54063 346.84064Q73.54063 348.3094 73.60313 348.7Q73.68125 349.09064 73.88438 349.45L72.775 349.45Q72.61875 349.1219 72.57188 348.6844ZM72.47813 346.325Q71.9 346.5594 70.75938 346.73126Q70.10313 346.825 69.8375 346.95Q69.57188 347.0594 69.41563 347.27814Q69.275 347.4969 69.275 347.77814Q69.275 348.2 69.5875 348.48126Q69.91563 348.7625 70.525 348.7625Q71.13438 348.7625 71.60313 348.4969Q72.0875 348.23126 72.30625 347.7625Q72.47813 347.40314 72.47813 346.71564L72.47813 346.325ZM75.50938 349.45L75.50938 343.23126L76.44688 343.23126L76.44688 344.10626Q77.13438 343.09064 78.43125 343.09064Q78.99375 343.09064 79.4625 343.29376Q79.94688 343.4969 80.18125 343.825Q80.41563 344.15314 80.50938 344.59064Q80.55625 344.8875 80.55625 345.6219L80.55625 349.45L79.50938 349.45L79.50938 345.66876Q79.50938 345.0125 79.38438 344.7Q79.25938 344.3875 78.94688 344.2Q78.63438 343.9969 78.2125 343.9969Q77.54063 343.9969 77.04063 344.4344Q76.55625 344.85626 76.55625 346.04376L76.55625 349.45L75.50938 349.45Z" fill-rule="nonzero"/><path fill="#000000" d="M106.52187 349.45L106.52187 340.85626L112.31875 340.85626L112.31875 341.8719L107.6625 341.8719L107.6625 344.52814L111.69375 344.52814L111.69375 345.54376L107.6625 345.54376L107.6625 349.45L106.52187 349.45ZM117.58437 347.45L118.67812 347.575Q118.42812 348.52814 117.725 349.0594Q117.02187 349.59064 115.94375 349.59064Q114.58437 349.59064 113.77187 348.7469Q112.975 347.90314 112.975 346.3875Q112.975 344.825 113.7875 343.96564Q114.6 343.09064 115.88125 343.09064Q117.13125 343.09064 117.9125 343.9344Q118.70937 344.77814 118.70937 346.325Q118.70937 346.41876 118.70937 346.60626L114.06875 346.60626Q114.13125 347.6375 114.64687 348.1844Q115.1625 348.71564 115.94375 348.71564Q116.52187 348.71564 116.92812 348.41876Q117.35 348.10626 117.58437 347.45ZM114.13125 345.7469L117.6 345.7469Q117.5375 344.95 117.20937 344.5594Q116.69375 343.95 115.89687 343.95Q115.1625 343.95 114.6625 344.4344Q114.17812 344.91876 114.13125 345.7469ZM121.30312 349.45L120.31875 349.45L120.31875 340.85626L121.38125 340.85626L121.38125 343.91876Q122.05312 343.09064 123.08437 343.09064Q123.6625 343.09064 124.1625 343.325Q124.67812 343.54376 125.00625 343.96564Q125.35 344.3875 125.5375 344.98126Q125.725 345.575 125.725 346.2469Q125.725 347.84064 124.92812 348.71564Q124.13125 349.59064 123.0375 349.59064Q121.92812 349.59064 121.30312 348.66876L121.30312 349.45ZM121.2875 346.29376Q121.2875 347.40314 121.6 347.90314Q122.1 348.71564 122.94375 348.71564Q123.63125 348.71564 124.13125 348.1219Q124.64687 347.52814 124.64687 346.325Q124.64687 345.10626 124.1625 344.52814Q123.67812 343.95 122.99062 343.95Q122.30312 343.95 121.7875 344.5594Q121.2875 345.15314 121.2875 346.29376Z" fill-rule="nonzero"/><path fill="#000000" d="M151.25313 349.45L151.25313 340.85626L152.97188 340.85626L155.00313 346.9344Q155.28438 347.79376 155.40938 348.21564Q155.55 347.7469 155.8625 346.84064L157.925 340.85626L159.45625 340.85626L159.45625 349.45L158.3625 349.45L158.3625 342.2625L155.8625 349.45L154.83125 349.45L152.34688 342.1375L152.34688 349.45L151.25313 349.45ZM164.22188 348.6844Q163.62813 349.1844 163.08125 349.3875Q162.55 349.59064 161.925 349.59064Q160.89375 349.59064 160.34688 349.09064Q159.8 348.59064 159.8 347.8094Q159.8 347.35626 160.00313 346.98126Q160.20625 346.59064 160.55 346.3719Q160.89375 346.1375 161.31563 346.02814Q161.6125 345.9344 162.25313 345.85626Q163.51875 345.71564 164.12813 345.4969Q164.12813 345.27814 164.12813 345.23126Q164.12813 344.575 163.83125 344.3094Q163.425 343.96564 162.62813 343.96564Q161.89375 343.96564 161.53438 344.23126Q161.175 344.48126 161.00313 345.1375L159.97188 344.9969Q160.1125 344.34064 160.44063 343.9344Q160.76875 343.52814 161.37813 343.3094Q161.9875 343.09064 162.78438 343.09064Q163.58125 343.09064 164.08125 343.27814Q164.58125 343.46564 164.81563 343.7469Q165.05 344.02814 165.14375 344.46564Q165.19063 344.73126 165.19063 345.4344L165.19063 346.84064Q165.19063 348.3094 165.25313 348.7Q165.33125 349.09064 165.53438 349.45L164.425 349.45Q164.26875 349.1219 164.22188 348.6844ZM164.12813 346.325Q163.55 346.5594 162.40938 346.73126Q161.75313 346.825 161.4875 346.95Q161.22188 347.0594 161.06563 347.27814Q160.925 347.4969 160.925 347.77814Q160.925 348.2 161.2375 348.48126Q161.56563 348.7625 162.175 348.7625Q162.78438 348.7625 163.25313 348.4969Q163.7375 348.23126 163.95625 347.7625Q164.12813 347.40314 164.12813 346.71564L164.12813 346.325ZM167.14375 349.45L167.14375 343.23126L168.09688 343.23126L168.09688 344.16876Q168.45625 343.5125 168.75313 343.3094Q169.06563 343.09064 169.44063 343.09064Q169.97188 343.09064 170.51875 343.41876L170.15938 344.40314Q169.76875 344.16876 169.39375 344.16876Q169.03438 344.16876 168.75313 344.3875Q168.4875 344.59064 168.37813 344.96564Q168.19063 345.52814 168.19063 346.1844L168.19063 349.45L167.14375 349.45Z" fill-rule="nonzero"/><path fill="#000000" d="M195.67188 349.45L198.96875 340.85626L200.1875 340.85626L203.70312 349.45L202.42188 349.45L201.40625 346.84064L197.82812 346.84064L196.875 349.45L195.67188 349.45ZM198.15625 345.91876L201.0625 345.91876L200.17188 343.54376Q199.75 342.46564 199.5625 341.7625Q199.39062 342.59064 199.09375 343.40314L198.15625 345.91876ZM203.48438 351.84064L203.48438 343.23126L204.4375 343.23126L204.4375 344.02814Q204.78125 343.5594 205.20312 343.325Q205.64062 343.09064 206.25 343.09064Q207.04688 343.09064 207.65625 343.4969Q208.26562 343.90314 208.5625 344.65314Q208.875 345.40314 208.875 346.29376Q208.875 347.2469 208.53125 348.0125Q208.20312 348.77814 207.54688 349.1844Q206.89062 349.59064 206.17188 349.59064Q205.64062 349.59064 205.21875 349.3719Q204.79688 349.1375 204.53125 348.8094L204.53125 351.84064L203.48438 351.84064ZM204.4375 346.3719Q204.4375 347.575 204.92188 348.15314Q205.40625 348.71564 206.09375 348.71564Q206.79688 348.71564 207.29688 348.1219Q207.79688 347.52814 207.79688 346.27814Q207.79688 345.09064 207.3125 344.5125Q206.82812 343.91876 206.14062 343.91876Q205.46875 343.91876 204.95312 344.54376Q204.4375 345.16876 204.4375 346.3719ZM210.46875 349.45L210.46875 343.23126L211.42188 343.23126L211.42188 344.16876Q211.78125 343.5125 212.07812 343.3094Q212.39062 343.09064 212.76562 343.09064Q213.29688 343.09064 213.84375 343.41876L213.48438 344.40314Q213.09375 344.16876 212.71875 344.16876Q212.35938 344.16876 212.07812 344.3875Q211.8125 344.59064 211.70312 344.96564Q211.51562 345.52814 211.51562 346.1844L211.51562 349.45L210.46875 349.45Z" fill-rule="nonzero"/><path fill="#000000" d="M239.40312 349.45L239.40312 340.85626L241.12187 340.85626L243.15312 346.9344Q243.43437 347.79376 243.55937 348.21564Q243.7 347.7469 244.0125 346.84064L246.075 340.85626L247.60625 340.85626L247.60625 349.45L246.5125 349.45L246.5125 342.2625L244.0125 349.45L242.98125 349.45L240.49687 342.1375L240.49687 349.45L239.40312 349.45ZM252.37187 348.6844Q251.77812 349.1844 251.23125 349.3875Q250.7 349.59064 250.075 349.59064Q249.04375 349.59064 248.49687 349.09064Q247.95 348.59064 247.95 347.8094Q247.95 347.35626 248.15312 346.98126Q248.35625 346.59064 248.7 346.3719Q249.04375 346.1375 249.46562 346.02814Q249.7625 345.9344 250.40312 345.85626Q251.66875 345.71564 252.27812 345.4969Q252.27812 345.27814 252.27812 345.23126Q252.27812 344.575 251.98125 344.3094Q251.575 343.96564 250.77812 343.96564Q250.04375 343.96564 249.68437 344.23126Q249.325 344.48126 249.15312 345.1375L248.12187 344.9969Q248.2625 344.34064 248.59062 343.9344Q248.91875 343.52814 249.52812 343.3094Q250.1375 343.09064 250.93437 343.09064Q251.73125 343.09064 252.23125 343.27814Q252.73125 343.46564 252.96562 343.7469Q253.2 344.02814 253.29375 344.46564Q253.34062 344.73126 253.34062 345.4344L253.34062 346.84064Q253.34062 348.3094 253.40312 348.7Q253.48125 349.09064 253.68437 349.45L252.575 349.45Q252.41875 349.1219 252.37187 348.6844ZM252.27812 346.325Q251.7 346.5594 250.55937 346.73126Q249.90312 346.825 249.6375 346.95Q249.37187 347.0594 249.21562 347.27814Q249.075 347.4969 249.075 347.77814Q249.075 348.2 249.3875 348.48126Q249.71562 348.7625 250.325 348.7625Q250.93437 348.7625 251.40312 348.4969Q251.8875 348.23126 252.10625 347.7625Q252.27812 347.40314 252.27812 346.71564L252.27812 346.325ZM255.2625 351.84064L255.1375 350.85626Q255.48125 350.95 255.74687 350.95Q256.09064 350.95 256.29376 350.825Q256.5125 350.71564 256.65314 350.5125Q256.7469 350.34064 256.98126 349.71564Q256.9969 349.6375 257.075 349.46564L254.7 343.23126L255.84062 343.23126L257.1375 346.825Q257.3875 347.5125 257.59064 348.27814Q257.77814 347.54376 258.02814 346.85626L259.35626 343.23126L260.40314 343.23126L258.04376 349.5594Q257.65314 350.575 257.45 350.96564Q257.16876 351.4969 256.79376 351.73126Q256.4344 351.98126 255.93437 351.98126Q255.6375 351.98126 255.2625 351.84064Z" fill-rule="nonzero"/><path fill="#000000" d="M283.68124 347.0125L284.7125 346.8719Q284.74374 347.85626 285.07187 348.21564Q285.4 348.575 285.99374 348.575Q286.41562 348.575 286.72812 348.3875Q287.04062 348.1844 287.15 347.85626Q287.275 347.5125 287.275 346.77814L287.275 340.85626L288.4 340.85626L288.4 346.71564Q288.4 347.79376 288.13437 348.3875Q287.88437 348.98126 287.32187 349.29376Q286.75937 349.59064 285.99374 349.59064Q284.86874 349.59064 284.25937 348.95Q283.66562 348.29376 283.68124 347.0125ZM294.2125 349.45L294.2125 348.52814Q293.47812 349.59064 292.22812 349.59064Q291.68124 349.59064 291.19687 349.3875Q290.72812 349.16876 290.49374 348.85626Q290.25937 348.52814 290.16562 348.0594Q290.10312 347.7625 290.10312 347.075L290.10312 343.23126L291.16562 343.23126L291.16562 346.6844Q291.16562 347.4969 291.22812 347.79376Q291.32187 348.2 291.63437 348.45Q291.9625 348.6844 292.44687 348.6844Q292.91562 348.6844 293.32187 348.45Q293.74374 348.2 293.91562 347.77814Q294.10312 347.35626 294.10312 346.5594L294.10312 343.23126L295.15 343.23126L295.15 349.45L294.2125 349.45ZM297.13437 349.45L297.13437 343.23126L298.07187 343.23126L298.07187 344.10626Q298.75937 343.09064 300.05624 343.09064Q300.61874 343.09064 301.0875 343.29376Q301.57187 343.4969 301.80624 343.825Q302.04062 344.15314 302.13437 344.59064Q302.18124 344.8875 302.18124 345.6219L302.18124 349.45L301.13437 349.45L301.13437 345.66876Q301.13437 345.0125 301.00937 344.7Q300.88437 344.3875 300.57187 344.2Q300.25937 343.9969 299.8375 343.9969Q299.16562 343.9969 298.66562 344.4344Q298.18124 344.85626 298.18124 346.04376L298.18124 349.45L297.13437 349.45Z" fill-rule="nonzero"/><path fill="#000000" d="M330.00626 347.0125L331.0375 346.8719Q331.06876 347.85626 331.39688 348.21564Q331.725 348.575 332.31876 348.575Q332.74063 348.575 333.05313 348.3875Q333.36563 348.1844 333.475 347.85626Q333.6 347.5125 333.6 346.77814L333.6 340.85626L334.725 340.85626L334.725 346.71564Q334.725 347.79376 334.45938 348.3875Q334.20938 348.98126 333.64688 349.29376Q333.08438 349.59064 332.31876 349.59064Q331.19376 349.59064 330.58438 348.95Q329.99063 348.29376 330.00626 347.0125ZM340.5375 349.45L340.5375 348.52814Q339.80313 349.59064 338.55313 349.59064Q338.00626 349.59064 337.52188 349.3875Q337.05313 349.16876 336.81876 348.85626Q336.58438 348.52814 336.49063 348.0594Q336.42813 347.7625 336.42813 347.075L336.42813 343.23126L337.49063 343.23126L337.49063 346.6844Q337.49063 347.4969 337.55313 347.79376Q337.64688 348.2 337.95938 348.45Q338.2875 348.6844 338.77188 348.6844Q339.24063 348.6844 339.64688 348.45Q340.06876 348.2 340.24063 347.77814Q340.42813 347.35626 340.42813 346.5594L340.42813 343.23126L341.475 343.23126L341.475 349.45L340.5375 349.45ZM343.42813 349.45L343.42813 340.85626L344.49063 340.85626L344.49063 349.45L343.42813 349.45Z" fill-rule="nonzero"/><path fill="#000000" d="M371.47186 349.45L374.76874 340.85626L375.9875 340.85626L379.5031 349.45L378.22186 349.45L377.20624 346.84064L373.6281 346.84064L372.675 349.45L371.47186 349.45ZM373.95624 345.91876L376.8625 345.91876L375.97186 343.54376Q375.55 342.46564 375.3625 341.7625Q375.1906 342.59064 374.89374 343.40314L373.95624 345.91876ZM383.3625 349.45L383.3625 348.52814Q382.6281 349.59064 381.3781 349.59064Q380.83124 349.59064 380.34686 349.3875Q379.8781 349.16876 379.64374 348.85626Q379.40936 348.52814 379.3156 348.0594Q379.2531 347.7625 379.2531 347.075L379.2531 343.23126L380.3156 343.23126L380.3156 346.6844Q380.3156 347.4969 380.3781 347.79376Q380.47186 348.2 380.78436 348.45Q381.1125 348.6844 381.59686 348.6844Q382.0656 348.6844 382.47186 348.45Q382.89374 348.2 383.0656 347.77814Q383.2531 347.35626 383.2531 346.5594L383.2531 343.23126L384.3 343.23126L384.3 349.45L383.3625 349.45ZM386.08124 349.96564L387.1125 350.1219Q387.175 350.59064 387.47186 350.8094Q387.8625 351.10626 388.53436 351.10626Q389.26874 351.10626 389.65936 350.8094Q390.0656 350.5125 390.20624 349.9969Q390.3 349.66876 390.28436 348.6375Q389.59686 349.45 388.5656 349.45Q387.28436 349.45 386.58124 348.52814Q385.8781 347.59064 385.8781 346.3094Q385.8781 345.41876 386.1906 344.66876Q386.51874 343.90314 387.1281 343.4969Q387.7375 343.09064 388.5656 343.09064Q389.675 343.09064 390.39374 343.98126L390.39374 343.23126L391.3625 343.23126L391.3625 348.60626Q391.3625 350.0594 391.0656 350.66876Q390.76874 351.27814 390.1281 351.6219Q389.4875 351.98126 388.55 351.98126Q387.4406 351.98126 386.7531 351.48126Q386.0656 350.98126 386.08124 349.96564ZM386.95624 346.23126Q386.95624 347.45 387.4406 348.0125Q387.925 348.575 388.65936 348.575Q389.39374 348.575 389.8781 348.0125Q390.3781 347.45 390.3781 346.2625Q390.3781 345.1219 389.8625 344.54376Q389.3625 343.96564 388.64374 343.96564Q387.9406 343.96564 387.4406 344.54376Q386.95624 345.10626 386.95624 346.23126Z" fill-rule="nonzero"/><path fill="#000000" d="M415.85938 346.6844L416.92188 346.59064Q417.0 347.2469 417.28125 347.65314Q417.5625 348.0594 418.14062 348.325Q418.73438 348.575 419.46875 348.575Q420.10938 348.575 420.60938 348.3875Q421.10938 348.1844 421.34375 347.85626Q421.59375 347.5125 421.59375 347.1219Q421.59375 346.71564 421.35938 346.41876Q421.125 346.10626 420.59375 345.90314Q420.23438 345.7625 419.04688 345.48126Q417.875 345.2 417.40625 344.95Q416.78125 344.6219 416.48438 344.15314Q416.1875 343.66876 416.1875 343.075Q416.1875 342.4344 416.54688 341.8719Q416.92188 341.29376 417.625 341.0125Q418.34375 340.71564 419.20312 340.71564Q420.15625 340.71564 420.89062 341.02814Q421.625 341.325 422.01562 341.9344Q422.40625 342.52814 422.4375 343.27814L421.34375 343.35626Q421.25 342.54376 420.73438 342.1375Q420.23438 341.71564 419.25 341.71564Q418.21875 341.71564 417.75 342.09064Q417.28125 342.46564 417.28125 342.9969Q417.28125 343.46564 417.60938 343.7625Q417.9375 344.0594 419.3125 344.3719Q420.70312 344.6844 421.21875 344.91876Q421.96875 345.27814 422.32812 345.8094Q422.6875 346.325 422.6875 347.02814Q422.6875 347.71564 422.29688 348.325Q421.90625 348.91876 421.17188 349.2625Q420.4375 349.59064 419.51562 349.59064Q418.34375 349.59064 417.54688 349.2625Q416.76562 348.91876 416.3125 348.23126Q415.875 347.54376 415.85938 346.6844ZM428.35938 347.45L429.45312 347.575Q429.20312 348.52814 428.5 349.0594Q427.79688 349.59064 426.71875 349.59064Q425.35938 349.59064 424.54688 348.7469Q423.75 347.90314 423.75 346.3875Q423.75 344.825 424.5625 343.96564Q425.375 343.09064 426.65625 343.09064Q427.90625 343.09064 428.6875 343.9344Q429.48438 344.77814 429.48438 346.325Q429.48438 346.41876 429.48438 346.60626L424.84375 346.60626Q424.90625 347.6375 425.42188 348.1844Q425.9375 348.71564 426.71875 348.71564Q427.29688 348.71564 427.70312 348.41876Q428.125 348.10626 428.35938 347.45ZM424.90625 345.7469L428.375 345.7469Q428.3125 344.95 427.98438 344.5594Q427.46875 343.95 426.67188 343.95Q425.9375 343.95 425.4375 344.4344Q424.95312 344.91876 424.90625 345.7469ZM431.10938 351.84064L431.10938 343.23126L432.0625 343.23126L432.0625 344.02814Q432.40625 343.5594 432.82812 343.325Q433.26562 343.09064 433.875 343.09064Q434.67188 343.09064 435.28125 343.4969Q435.89062 343.90314 436.1875 344.65314Q436.5 345.40314 436.5 346.29376Q436.5 347.2469 436.15625 348.0125Q435.82812 348.77814 435.17188 349.1844Q434.51562 349.59064 433.79688 349.59064Q433.26562 349.59064 432.84375 349.3719Q432.42188 349.1375 432.15625 348.8094L432.15625 351.84064L431.10938 351.84064ZM432.0625 346.3719Q432.0625 347.575 432.54688 348.15314Q433.03125 348.71564 433.71875 348.71564Q434.42188 348.71564 434.92188 348.1219Q435.42188 347.52814 435.42188 346.27814Q435.42188 345.09064 434.9375 344.5125Q434.45312 343.91876 433.76562 343.91876Q433.09375 343.91876 432.57812 344.54376Q432.0625 345.16876 432.0625 346.3719Z" fill-rule="nonzero"/><path fill="#000000" d="M462.21564 345.2625Q462.21564 343.1219 463.35626 341.91876Q464.5125 340.7 466.325 340.7Q467.52814 340.7 468.48126 341.27814Q469.4344 341.84064 469.9344 342.85626Q470.4344 343.8719 470.4344 345.16876Q470.4344 346.46564 469.90314 347.4969Q469.3719 348.52814 468.40314 349.0594Q467.45 349.59064 466.325 349.59064Q465.10626 349.59064 464.15314 349.0125Q463.2 348.41876 462.7 347.41876Q462.21564 346.40314 462.21564 345.2625ZM463.3875 345.27814Q463.3875 346.84064 464.21564 347.73126Q465.0594 348.6219 466.325 348.6219Q467.60626 348.6219 468.4344 347.73126Q469.2625 346.825 469.2625 345.15314Q469.2625 344.10626 468.90314 343.325Q468.5594 342.54376 467.8719 342.1219Q467.1844 341.6844 466.34064 341.6844Q465.1375 341.6844 464.2625 342.5125Q463.3875 343.34064 463.3875 345.27814ZM475.4969 347.16876L476.52814 347.3094Q476.35626 348.3719 475.65314 348.98126Q474.95 349.59064 473.9344 349.59064Q472.65314 349.59064 471.8719 348.7625Q471.10626 347.91876 471.10626 346.35626Q471.10626 345.35626 471.4344 344.60626Q471.77814 343.84064 472.45 343.46564Q473.1375 343.09064 473.95 343.09064Q474.95 343.09064 475.59064 343.60626Q476.2469 344.10626 476.4344 345.0594L475.40314 345.21564Q475.2625 344.59064 474.8875 344.27814Q474.5125 343.95 473.98126 343.95Q473.1844 343.95 472.6844 344.52814Q472.1844 345.09064 472.1844 346.325Q472.1844 347.59064 472.66876 348.15314Q473.15314 348.71564 473.91876 348.71564Q474.54376 348.71564 474.95 348.34064Q475.3719 347.96564 475.4969 347.16876ZM479.73126 348.5125L479.8875 349.4344Q479.4344 349.52814 479.09064 349.52814Q478.5125 349.52814 478.2 349.35626Q477.8875 349.16876 477.7469 348.8719Q477.6219 348.575 477.6219 347.6219L477.6219 344.04376L476.85626 344.04376L476.85626 343.23126L477.6219 343.23126L477.6219 341.6844L478.66876 341.0594L478.66876 343.23126L479.73126 343.23126L479.73126 344.04376L478.66876 344.04376L478.66876 347.6844Q478.66876 348.1375 478.71564 348.2625Q478.77814 348.3875 478.90314 348.46564Q479.02814 348.54376 479.2625 348.54376Q479.45 348.54376 479.73126 348.5125Z" fill-rule="nonzero"/><path fill="#000000" d="M505.38437 349.45L505.38437 340.85626L506.54062 340.85626L511.05624 347.60626L511.05624 340.85626L512.15 340.85626L512.15 349.45L510.97812 349.45L506.4625 342.7L506.4625 349.45L505.38437 349.45ZM513.8688 346.34064Q513.8688 344.60626 514.8219 343.77814Q515.6188 343.09064 516.775 343.09064Q518.0563 343.09064 518.8688 343.9344Q519.6969 344.7625 519.6969 346.2469Q519.6969 347.45 519.3375 348.1375Q518.97815 348.825 518.275 349.21564Q517.5875 349.59064 516.775 349.59064Q515.47815 349.59064 514.66565 348.7625Q513.8688 347.91876 513.8688 346.34064ZM514.9469 346.34064Q514.9469 347.52814 515.4625 348.1219Q515.9938 348.71564 516.775 348.71564Q517.5719 348.71564 518.0875 348.1219Q518.60315 347.52814 518.60315 346.3094Q518.60315 345.15314 518.0719 344.5594Q517.5563 343.96564 516.775 343.96564Q515.9938 343.96564 515.4625 344.5594Q514.9469 345.1375 514.9469 346.34064ZM522.97815 349.45L520.6188 343.23126L521.72815 343.23126L523.0719 346.95Q523.275 347.5594 523.4625 348.2Q523.60315 347.71564 523.85315 347.02814L525.2438 343.23126L526.3219 343.23126L523.9625 349.45L522.97815 349.45Z" fill-rule="nonzero"/><path fill="#000000" d="M549.20935 349.45L549.20935 340.85626L552.1781 340.85626Q553.1781 340.85626 553.70935 340.98126Q554.4437 341.15314 554.95935 341.59064Q555.64685 342.16876 555.975 343.075Q556.3187 343.96564 556.3187 345.10626Q556.3187 346.09064 556.08435 346.84064Q555.8656 347.59064 555.5062 348.09064Q555.14685 348.59064 554.70935 348.8719Q554.2875 349.15314 553.6937 349.3094Q553.1 349.45 552.3187 349.45L549.20935 349.45ZM550.35 348.4344L552.1781 348.4344Q553.0375 348.4344 553.52185 348.27814Q554.0062 348.1219 554.2875 347.825Q554.6937 347.4344 554.9125 346.7469Q555.14685 346.0594 555.14685 345.09064Q555.14685 343.7469 554.6937 343.02814Q554.2562 342.29376 553.6312 342.04376Q553.1625 341.8719 552.1625 341.8719L550.35 341.8719L550.35 348.4344ZM562.33435 347.45L563.4281 347.575Q563.1781 348.52814 562.475 349.0594Q561.77185 349.59064 560.6937 349.59064Q559.33435 349.59064 558.52185 348.7469Q557.725 347.90314 557.725 346.3875Q557.725 344.825 558.5375 343.96564Q559.35 343.09064 560.6312 343.09064Q561.8812 343.09064 562.6625 343.9344Q563.45935 344.77814 563.45935 346.325Q563.45935 346.41876 563.45935 346.60626L558.8187 346.60626Q558.8812 347.6375 559.39685 348.1844Q559.9125 348.71564 560.6937 348.71564Q561.27185 348.71564 561.6781 348.41876Q562.1 348.10626 562.33435 347.45ZM558.8812 345.7469L562.35 345.7469Q562.2875 344.95 561.95935 344.5594Q561.4437 343.95 560.64685 343.95Q559.9125 343.95 559.4125 344.4344Q558.9281 344.91876 558.8812 345.7469ZM569.14685 347.16876L570.1781 347.3094Q570.0062 348.3719 569.3031 348.98126Q568.6 349.59064 567.58435 349.59064Q566.3031 349.59064 565.52185 348.7625Q564.7562 347.91876 564.7562 346.35626Q564.7562 345.35626 565.08435 344.60626Q565.4281 343.84064 566.1 343.46564Q566.7875 343.09064 567.6 343.09064Q568.6 343.09064 569.2406 343.60626Q569.89685 344.10626 570.08435 345.0594L569.0531 345.21564Q568.9125 344.59064 568.5375 344.27814Q568.1625 343.95 567.6312 343.95Q566.83435 343.95 566.33435 344.52814Q565.83435 345.09064 565.83435 346.325Q565.83435 347.59064 566.3187 348.15314Q566.8031 348.71564 567.5687 348.71564Q568.1937 348.71564 568.6 348.34064Q569.02185 347.96564 569.14685 347.16876Z" fill-rule="nonzero"/><path fill="#6b46c1" d="M197.5 61.916668C197.5 65.23038 194.8137 67.916664 191.5 67.916664C188.1863 67.916664 185.5 65.23038 185.5 61.916668C185.5 58.60296 188.1863 55.916668 191.5 55.916668C194.8137 55.916668 197.5 58.60296 197.5 61.916668Z" fill-rule="nonzero"/><path fill="#1a1a1a" d="M207.4375 65.916664L205.53125 59.697914L206.625 59.697914L207.60938 63.291664L207.98438 64.61979Q208.01562 64.52604 208.3125 63.33854L209.29688 59.697914L210.375 59.697914L211.3125 63.30729L211.625 64.49479L211.98438 63.291664L213.04688 59.697914L214.07812 59.697914L212.125 65.916664L211.03125 65.916664L210.04688 62.18229L209.79688 61.135414L208.54688 65.916664L207.4375 65.916664ZM215.29688 58.541664L215.29688 57.322914L216.35938 57.322914L216.35938 58.541664L215.29688 58.541664ZM215.29688 65.916664L215.29688 59.697914L216.35938 59.697914L216.35938 65.916664L215.29688 65.916664ZM220.59375 64.979164L220.75 65.90104Q220.29688 65.99479 219.95312 65.99479Q219.375 65.99479 219.0625 65.822914Q218.75 65.635414 218.60938 65.33854Q218.48438 65.041664 218.48438 64.08854L218.48438 60.510414L217.71875 60.510414L217.71875 59.697914L218.48438 59.697914L218.48438 58.15104L219.53125 57.52604L219.53125 59.697914L220.59375 59.697914L220.59375 60.510414L219.53125 60.510414L219.53125 64.15104Q219.53125 64.604164 219.57812 64.729164Q219.64062 64.854164 219.76562 64.93229Q219.89062 65.010414 220.125 65.010414Q220.3125 65.010414 220.59375 64.979164ZM221.29688 65.916664L221.29688 57.322914L222.34375 57.322914L222.34375 60.40104Q223.07812 59.55729 224.20312 59.55729Q224.90625 59.55729 225.40625 59.83854Q225.92188 60.104164 226.14062 60.58854Q226.35938 61.05729 226.35938 61.979164L226.35938 65.916664L225.3125 65.916664L225.3125 61.979164Q225.3125 61.18229 224.96875 60.822914Q224.625 60.46354 224.0 60.46354Q223.53125 60.46354 223.10938 60.71354Q222.70312 60.947914 222.51562 61.36979Q222.34375 61.77604 222.34375 62.510414L222.34375 65.916664L221.29688 65.916664ZM230.48438 65.916664L233.78125 57.322914L235.0 57.322914L238.51562 65.916664L237.23438 65.916664L236.21875 63.30729L232.64062 63.30729L231.6875 65.916664L230.48438 65.916664ZM232.96875 62.385414L235.875 62.385414L234.98438 60.010414Q234.5625 58.93229 234.375 58.229164Q234.20312 59.05729 233.90625 59.86979L232.96875 62.385414ZM242.32812 65.916664L242.32812 65.135414Q241.73438 66.05729 240.59375 66.05729Q239.84375 66.05729 239.21875 65.65104Q238.59375 65.229164 238.25 64.49479Q237.90625 63.760414 237.90625 62.80729Q237.90625 61.885414 238.21875 61.11979Q238.53125 60.354164 239.15625 59.96354Q239.78125 59.55729 240.54688 59.55729Q241.10938 59.55729 241.54688 59.791664Q241.98438 60.02604 242.26562 60.40104L242.26562 57.322914L243.3125 57.322914L243.3125 65.916664L242.32812 65.916664ZM239.0 62.80729Q239.0 64.010414 239.5 64.604164Q240.0 65.18229 240.6875 65.18229Q241.375 65.18229 241.85938 64.61979Q242.34375 64.05729 242.34375 62.90104Q242.34375 61.61979 241.84375 61.02604Q241.35938 60.43229 240.64062 60.43229Q239.9375 60.43229 239.46875 61.010414Q239.0 61.572914 239.0 62.80729ZM249.35938 65.15104Q248.76562 65.65104 248.21875 65.854164Q247.6875 66.05729 247.0625 66.05729Q246.03125 66.05729 245.48438 65.55729Q244.9375 65.05729 244.9375 64.27604Q244.9375 63.822914 245.14062 63.447914Q245.34375 63.05729 245.6875 62.83854Q246.03125 62.604164 246.45312 62.49479Q246.75 62.40104 247.39062 62.322914Q248.65625 62.18229 249.26562 61.96354Q249.26562 61.74479 249.26562 61.697914Q249.26562 61.041664 248.96875 60.77604Q248.5625 60.43229 247.76562 60.43229Q247.03125 60.43229 246.67188 60.697914Q246.3125 60.947914 246.14062 61.604164L245.10938 61.46354Q245.25 60.80729 245.57812 60.40104Q245.90625 59.99479 246.51562 59.77604Q247.125 59.55729 247.92188 59.55729Q248.71875 59.55729 249.21875 59.74479Q249.71875 59.93229 249.95312 60.21354Q250.1875 60.49479 250.28125 60.93229Q250.32812 61.197914 250.32812 61.90104L250.32812 63.30729Q250.32812 64.77604 250.39062 65.166664Q250.46875 65.55729 250.67188 65.916664L249.5625 65.916664Q249.40625 65.58854 249.35938 65.15104ZM249.26562 62.791664Q248.6875 63.02604 247.54688 63.197914Q246.89062 63.291664 246.625 63.416664Q246.35938 63.52604 246.20312 63.74479Q246.0625 63.96354 246.0625 64.24479Q246.0625 64.666664 246.375 64.947914Q246.70312 65.229164 247.3125 65.229164Q247.92188 65.229164 248.39062 64.96354Q248.875 64.697914 249.09375 64.229164Q249.26562 63.86979 249.26562 63.18229L249.26562 62.791664ZM252.29688 68.30729L252.29688 59.697914L253.25 59.697914L253.25 60.49479Q253.59375 60.02604 254.01562 59.791664Q254.45312 59.55729 255.0625 59.55729Q255.85938 59.55729 256.46875 59.96354Q257.07812 60.36979 257.375 61.11979Q257.6875 61.86979 257.6875 62.760414Q257.6875 63.71354 257.34375 64.479164Q257.01562 65.24479 256.35938 65.65104Q255.70312 66.05729 254.98438 66.05729Q254.45312 66.05729 254.03125 65.83854Q253.60938 65.604164 253.34375 65.27604L253.34375 68.30729L252.29688 68.30729ZM253.25 62.83854Q253.25 64.041664 253.73438 64.61979Q254.21875 65.18229 254.90625 65.18229Q255.60938 65.18229 256.10938 64.58854Q256.60938 63.99479 256.60938 62.74479Q256.60938 61.55729 256.125 60.979164Q255.64062 60.385414 254.95312 60.385414Q254.28125 60.385414 253.76562 61.010414Q253.25 61.635414 253.25 62.83854ZM261.59375 64.979164L261.75 65.90104Q261.29688 65.99479 260.95312 65.99479Q260.375 65.99479 260.0625 65.822914Q259.75 65.635414 259.60938 65.33854Q259.48438 65.041664 259.48438 64.08854L259.48438 60.510414L258.71875 60.510414L258.71875 59.697914L259.48438 59.697914L259.48438 58.15104L260.53125 57.52604L260.53125 59.697914L261.59375 59.697914L261.59375 60.510414L260.53125 60.510414L260.53125 64.15104Q260.53125 64.604164 260.57812 64.729164Q260.64062 64.854164 260.76562 64.93229Q260.89062 65.010414 261.125 65.010414Q261.3125 65.010414 261.59375 64.979164ZM261.48438 65.916664L264.78125 57.322914L266.0 57.322914L269.51562 65.916664L268.23438 65.916664L267.21875 63.30729L263.64062 63.30729L262.6875 65.916664L261.48438 65.916664ZM263.96875 62.385414L266.875 62.385414L265.98438 60.010414Q265.5625 58.93229 265.375 58.229164Q265.20312 59.05729 264.90625 59.86979L263.96875 62.385414ZM269.625 65.916664L269.625 57.322914L270.75 57.322914L270.75 65.916664L269.625 65.916664ZM271.73438 65.916664L271.73438 65.05729L275.70312 60.510414Q275.01562 60.541664 274.5 60.541664L271.96875 60.541664L271.96875 59.697914L277.0625 59.697914L277.0625 60.385414L273.6875 64.33854L273.03125 65.05729Q273.75 65.010414 274.35938 65.010414L277.25 65.010414L277.25 65.916664L271.73438 65.916664ZM281.54688 63.916664L282.64062 64.041664Q282.39062 64.99479 281.6875 65.52604Q280.98438 66.05729 279.90625 66.05729Q278.54688 66.05729 277.73438 65.21354Q276.9375 64.36979 276.9375 62.854164Q276.9375 61.291664 277.75 60.43229Q278.5625 59.55729 279.84375 59.55729Q281.09375 59.55729 281.875 60.40104Q282.67188 61.24479 282.67188 62.791664Q282.67188 62.885414 282.67188 63.072914L278.03125 63.072914Q278.09375 64.104164 278.60938 64.65104Q279.125 65.18229 279.90625 65.18229Q280.48438 65.18229 280.89062 64.885414Q281.3125 64.572914 281.54688 63.916664ZM278.09375 62.21354L281.5625 62.21354Q281.5 61.416664 281.17188 61.02604Q280.65625 60.416664 279.85938 60.416664Q279.125 60.416664 278.625 60.90104Q278.14062 61.385414 278.09375 62.21354Z" fill-rule="nonzero"/><path fill="#ddcbfa" d="M311.5 61.916668C311.5 65.23038 308.81372 67.916664 305.5 67.916664C302.18628 67.916664 299.5 65.23038 299.5 61.916668C299.5 58.60296 302.18628 55.916668 305.5 55.916668C308.81372 55.916668 311.5 58.60296 311.5 61.916668Z" fill-rule="nonzero"/><path fill="#1a1a1a" d="M321.4375 65.916664L319.53125 59.697914L320.625 59.697914L321.60938 63.291664L321.98438 64.61979Q322.01562 64.52604 322.3125 63.33854L323.29688 59.697914L324.375 59.697914L325.3125 63.30729L325.625 64.49479L325.98438 63.291664L327.04688 59.697914L328.07812 59.697914L326.125 65.916664L325.03125 65.916664L324.04688 62.18229L323.79688 61.135414L322.54688 65.916664L321.4375 65.916664ZM329.29688 58.541664L329.29688 57.322914L330.35938 57.322914L330.35938 58.541664L329.29688 58.541664ZM329.29688 65.916664L329.29688 59.697914L330.35938 59.697914L330.35938 65.916664L329.29688 65.916664ZM334.59375 64.979164L334.75 65.90104Q334.29688 65.99479 333.95312 65.99479Q333.375 65.99479 333.0625 65.822914Q332.75 65.635414 332.60938 65.33854Q332.48438 65.041664 332.48438 64.08854L332.48438 60.510414L331.71875 60.510414L331.71875 59.697914L332.48438 59.697914L332.48438 58.15104L333.53125 57.52604L333.53125 59.697914L334.59375 59.697914L334.59375 60.510414L333.53125 60.510414L333.53125 64.15104Q333.53125 64.604164 333.57812 64.729164Q333.64062 64.854164 333.76562 64.93229Q333.89062 65.010414 334.125 65.010414Q334.3125 65.010414 334.59375 64.979164ZM335.29688 65.916664L335.29688 57.322914L336.34375 57.322914L336.34375 60.40104Q337.07812 59.55729 338.20312 59.55729Q338.90625 59.55729 339.40625 59.83854Q339.92188 60.104164 340.14062 60.58854Q340.35938 61.05729 340.35938 61.979164L340.35938 65.916664L339.3125 65.916664L339.3125 61.979164Q339.3125 61.18229 338.96875 60.822914Q338.625 60.46354 338.0 60.46354Q337.53125 60.46354 337.10938 60.71354Q336.70312 60.947914 336.51562 61.36979Q336.34375 61.77604 336.34375 62.510414L336.34375 65.916664L335.29688 65.916664ZM341.90625 62.80729Q341.90625 61.072914 342.85938 60.24479Q343.65625 59.55729 344.8125 59.55729Q346.09375 59.55729 346.90625 60.40104Q347.73438 61.229164 347.73438 62.71354Q347.73438 63.916664 347.375 64.604164Q347.01562 65.291664 346.3125 65.68229Q345.625 66.05729 344.8125 66.05729Q343.51562 66.05729 342.70312 65.229164Q341.90625 64.385414 341.90625 62.80729ZM342.98438 62.80729Q342.98438 63.99479 343.5 64.58854Q344.03125 65.18229 344.8125 65.18229Q345.60938 65.18229 346.125 64.58854Q346.64062 63.99479 346.64062 62.77604Q346.64062 61.61979 346.10938 61.02604Q345.59375 60.43229 344.8125 60.43229Q344.03125 60.43229 343.5 61.02604Q342.98438 61.604164 342.98438 62.80729ZM353.375 65.916664L353.375 64.99479Q352.64062 66.05729 351.39062 66.05729Q350.84375 66.05729 350.35938 65.854164Q349.89062 65.635414 349.65625 65.322914Q349.42188 64.99479 349.32812 64.52604Q349.26562 64.229164 349.26562 63.541664L349.26562 59.697914L350.32812 59.697914L350.32812 63.15104Q350.32812 63.96354 350.39062 64.260414Q350.48438 64.666664 350.79688 64.916664Q351.125 65.15104 351.60938 65.15104Q352.07812 65.15104 352.48438 64.916664Q352.90625 64.666664 353.07812 64.24479Q353.26562 63.822914 353.26562 63.02604L353.26562 59.697914L354.3125 59.697914L354.3125 65.916664L353.375 65.916664ZM358.59375 64.979164L358.75 65.90104Q358.29688 65.99479 357.95312 65.99479Q357.375 65.99479 357.0625 65.822914Q356.75 65.635414 356.60938 65.33854Q356.48438 65.041664 356.48438 64.08854L356.48438 60.510414L355.71875 60.510414L355.71875 59.697914L356.48438 59.697914L356.48438 58.15104L357.53125 57.52604L357.53125 59.697914L358.59375 59.697914L358.59375 60.510414L357.53125 60.510414L357.53125 64.15104Q357.53125 64.604164 357.57812 64.729164Q357.64062 64.854164 357.76562 64.93229Q357.89062 65.010414 358.125 65.010414Q358.3125 65.010414 358.59375 64.979164ZM361.48438 65.916664L364.78125 57.322914L366.0 57.322914L369.51562 65.916664L368.23438 65.916664L367.21875 63.30729L363.64062 63.30729L362.6875 65.916664L361.48438 65.916664ZM363.96875 62.385414L366.875 62.385414L365.98438 60.010414Q365.5625 58.93229 365.375 58.229164Q365.20312 59.05729 364.90625 59.86979L363.96875 62.385414ZM373.32812 65.916664L373.32812 65.135414Q372.73438 66.05729 371.59375 66.05729Q370.84375 66.05729 370.21875 65.65104Q369.59375 65.229164 369.25 64.49479Q368.90625 63.760414 368.90625 62.80729Q368.90625 61.885414 369.21875 61.11979Q369.53125 60.354164 370.15625 59.96354Q370.78125 59.55729 371.54688 59.55729Q372.10938 59.55729 372.54688 59.791664Q372.98438 60.02604 373.26562 60.40104L373.26562 57.322914L374.3125 57.322914L374.3125 65.916664L373.32812 65.916664ZM370.0 62.80729Q370.0 64.010414 370.5 64.604164Q371.0 65.18229 371.6875 65.18229Q372.375 65.18229 372.85938 64.61979Q373.34375 64.05729 373.34375 62.90104Q373.34375 61.61979 372.84375 61.02604Q372.35938 60.43229 371.64062 60.43229Q370.9375 60.43229 370.46875 61.010414Q370.0 61.572914 370.0 62.80729ZM380.35938 65.15104Q379.76562 65.65104 379.21875 65.854164Q378.6875 66.05729 378.0625 66.05729Q377.03125 66.05729 376.48438 65.55729Q375.9375 65.05729 375.9375 64.27604Q375.9375 63.822914 376.14062 63.447914Q376.34375 63.05729 376.6875 62.83854Q377.03125 62.604164 377.45312 62.49479Q377.75 62.40104 378.39062 62.322914Q379.65625 62.18229 380.26562 61.96354Q380.26562 61.74479 380.26562 61.697914Q380.26562 61.041664 379.96875 60.77604Q379.5625 60.43229 378.76562 60.43229Q378.03125 60.43229 377.67188 60.697914Q377.3125 60.947914 377.14062 61.604164L376.10938 61.46354Q376.25 60.80729 376.57812 60.40104Q376.90625 59.99479 377.51562 59.77604Q378.125 59.55729 378.92188 59.55729Q379.71875 59.55729 380.21875 59.74479Q380.71875 59.93229 380.95312 60.21354Q381.1875 60.49479 381.28125 60.93229Q381.32812 61.197914 381.32812 61.90104L381.32812 63.30729Q381.32812 64.77604 381.39062 65.166664Q381.46875 65.55729 381.67188 65.916664L380.5625 65.916664Q380.40625 65.58854 380.35938 65.15104ZM380.26562 62.791664Q379.6875 63.02604 378.54688 63.197914Q377.89062 63.291664 377.625 63.416664Q377.35938 63.52604 377.20312 63.74479Q377.0625 63.96354 377.0625 64.24479Q377.0625 64.666664 377.375 64.947914Q377.70312 65.229164 378.3125 65.229164Q378.92188 65.229164 379.39062 64.96354Q379.875 64.697914 380.09375 64.229164Q380.26562 63.86979 380.26562 63.18229L380.26562 62.791664ZM383.29688 68.30729L383.29688 59.697914L384.25 59.697914L384.25 60.49479Q384.59375 60.02604 385.01562 59.791664Q385.45312 59.55729 386.0625 59.55729Q386.85938 59.55729 387.46875 59.96354Q388.07812 60.36979 388.375 61.11979Q388.6875 61.86979 388.6875 62.760414Q388.6875 63.71354 388.34375 64.479164Q388.01562 65.24479 387.35938 65.65104Q386.70312 66.05729 385.98438 66.05729Q385.45312 66.05729 385.03125 65.83854Q384.60938 65.604164 384.34375 65.27604L384.34375 68.30729L383.29688 68.30729ZM384.25 62.83854Q384.25 64.041664 384.73438 64.61979Q385.21875 65.18229 385.90625 65.18229Q386.60938 65.18229 387.10938 64.58854Q387.60938 63.99479 387.60938 62.74479Q387.60938 61.55729 387.125 60.979164Q386.64062 60.385414 385.95312 60.385414Q385.28125 60.385414 384.76562 61.010414Q384.25 61.635414 384.25 62.83854ZM392.59375 64.979164L392.75 65.90104Q392.29688 65.99479 391.95312 65.99479Q391.375 65.99479 391.0625 65.822914Q390.75 65.635414 390.60938 65.33854Q390.48438 65.041664 390.48438 64.08854L390.48438 60.510414L389.71875 60.510414L389.71875 59.697914L390.48438 59.697914L390.48438 58.15104L391.53125 57.52604L391.53125 59.697914L392.59375 59.697914L392.59375 60.510414L391.53125 60.510414L391.53125 64.15104Q391.53125 64.604164 391.57812 64.729164Q391.64062 64.854164 391.76562 64.93229Q391.89062 65.010414 392.125 65.010414Q392.3125 65.010414 392.59375 64.979164ZM392.48438 65.916664L395.78125 57.322914L397.0 57.322914L400.51562 65.916664L399.23438 65.916664L398.21875 63.30729L394.64062 63.30729L393.6875 65.916664L392.48438 65.916664ZM394.96875 62.385414L397.875 62.385414L396.98438 60.010414Q396.5625 58.93229 396.375 58.229164Q396.20312 59.05729 395.90625 59.86979L394.96875 62.385414ZM400.625 65.916664L400.625 57.322914L401.75 57.322914L401.75 65.916664L400.625 65.916664ZM402.73438 65.916664L402.73438 65.05729L406.70312 60.510414Q406.01562 60.541664 405.5 60.541664L402.96875 60.541664L402.96875 59.697914L408.0625 59.697914L408.0625 60.385414L404.6875 64.33854L404.03125 65.05729Q404.75 65.010414 405.35938 65.010414L408.25 65.010414L408.25 65.916664L402.73438 65.916664ZM412.54688 63.916664L413.64062 64.041664Q413.39062 64.99479 412.6875 65.52604Q411.98438 66.05729 410.90625 66.05729Q409.54688 66.05729 408.73438 65.21354Q407.9375 64.36979 407.9375 62.854164Q407.9375 61.291664 408.75 60.43229Q409.5625 59.55729 410.84375 59.55729Q412.09375 59.55729 412.875 60.40104Q413.67188 61.24479 413.67188 62.791664Q413.67188 62.885414 413.67188 63.072914L409.03125 63.072914Q409.09375 64.104164 409.60938 64.65104Q410.125 65.18229 410.90625 65.18229Q411.48438 65.18229 411.89062 64.885414Q412.3125 64.572914 412.54688 63.916664ZM409.09375 62.21354L412.5625 62.21354Q412.5 61.416664 412.17188 61.02604Q411.65625 60.416664 410.85938 60.416664Q410.125 60.416664 409.625 60.90104Q409.14062 61.385414 409.09375 62.21354Z" fill-rule="nonzero"/><path fill="#757575" d="M24.128124 37.55L24.128124 31.4875L18.6125 23.2375L20.909374 23.2375L23.7375 27.55Q24.51875 28.753124 25.190624 29.971874Q25.83125 28.846874 26.753124 27.440624L29.534374 23.2375L31.7375 23.2375L26.01875 31.4875L26.01875 37.55L24.128124 37.55ZM33.221874 32.3625Q33.221874 29.4875 34.815624 28.096874Q36.159374 26.940624 38.08125 26.940624Q40.221874 26.940624 41.565624 28.346874Q42.925 29.753124 42.925 32.221874Q42.925 34.221874 42.33125 35.378124Q41.7375 36.51875 40.58125 37.159374Q39.440624 37.784374 38.08125 37.784374Q35.89375 37.784374 34.55 36.39375Q33.221874 34.9875 33.221874 32.3625ZM35.01875 32.3625Q35.01875 34.3625 35.878124 35.346874Q36.753124 36.33125 38.08125 36.33125Q39.39375 36.33125 40.253124 35.346874Q41.128124 34.346874 41.128124 32.3Q41.128124 30.378124 40.253124 29.39375Q39.378124 28.39375 38.08125 28.39375Q36.753124 28.39375 35.878124 29.39375Q35.01875 30.378124 35.01875 32.3625ZM51.659374 37.55L51.659374 36.01875Q50.45625 37.784374 48.378124 37.784374Q47.45625 37.784374 46.659374 37.440624Q45.8625 37.08125 45.471874 36.55Q45.096874 36.01875 44.940624 35.2375Q44.83125 34.721874 44.83125 33.596874L44.83125 27.175L46.58125 27.175L46.58125 32.925Q46.58125 34.3 46.690624 34.784374Q46.8625 35.471874 47.39375 35.878124Q47.940624 36.26875 48.721874 36.26875Q49.51875 36.26875 50.20625 35.8625Q50.909374 35.45625 51.190624 34.76875Q51.4875 34.065624 51.4875 32.7375L51.4875 27.175L53.2375 27.175L53.2375 37.55L51.659374 37.55ZM54.846874 37.55L54.846874 27.175L56.425 27.175L56.425 28.753124Q57.034374 27.64375 57.55 27.3Q58.065624 26.940624 58.675 26.940624Q59.565624 26.940624 60.4875 27.503124L59.878124 29.14375Q59.2375 28.753124 58.596874 28.753124Q58.01875 28.753124 57.55 29.1125Q57.096874 29.45625 56.89375 30.065624Q56.6125 31.003124 56.6125 32.1125L56.6125 37.55L54.846874 37.55ZM68.09688 37.55L68.09688 23.2375L73.4875 23.2375Q74.925 23.2375 75.675 23.3625Q76.72188 23.55 77.44063 24.05Q78.15938 24.534374 78.58125 25.425Q79.01875 26.315624 79.01875 27.378124Q79.01875 29.20625 77.84688 30.471874Q76.69063 31.721874 73.65938 31.721874L69.9875 31.721874L69.9875 37.55L68.09688 37.55ZM69.9875 30.034374L73.69063 30.034374Q75.51875 30.034374 76.28438 29.3625Q77.06563 28.675 77.06563 27.425Q77.06563 26.534374 76.6125 25.89375Q76.15938 25.253124 75.425 25.05Q74.94063 24.925 73.64375 24.925L69.9875 24.925L69.9875 30.034374ZM80.84688 37.55L80.84688 27.175L82.425 27.175L82.425 28.753124Q83.03438 27.64375 83.55 27.3Q84.06563 26.940624 84.675 26.940624Q85.56563 26.940624 86.4875 27.503124L85.87813 29.14375Q85.2375 28.753124 84.59688 28.753124Q84.01875 28.753124 83.55 29.1125Q83.09688 29.45625 82.89375 30.065624Q82.6125 31.003124 82.6125 32.1125L82.6125 37.55L80.84688 37.55ZM87.22188 32.3625Q87.22188 29.4875 88.81563 28.096874Q90.15938 26.940624 92.08125 26.940624Q94.22188 26.940624 95.56563 28.346874Q96.925 29.753124 96.925 32.221874Q96.925 34.221874 96.33125 35.378124Q95.7375 36.51875 94.58125 37.159374Q93.44063 37.784374 92.08125 37.784374Q89.89375 37.784374 88.55 36.39375Q87.22188 34.9875 87.22188 32.3625ZM89.01875 32.3625Q89.01875 34.3625 89.87813 35.346874Q90.75313 36.33125 92.08125 36.33125Q93.39375 36.33125 94.25313 35.346874Q95.12813 34.346874 95.12813 32.3Q95.12813 30.378124 94.25313 29.39375Q93.37813 28.39375 92.08125 28.39375Q90.75313 28.39375 89.87813 29.39375Q89.01875 30.378124 89.01875 32.3625ZM99.28438 37.55L99.28438 28.55L97.7375 28.55L97.7375 27.175L99.28438 27.175L99.28438 26.08125Q99.28438 25.034374 99.47188 24.51875Q99.72188 23.83125 100.3625 23.409374Q101.00313 22.9875 102.15938 22.9875Q102.90938 22.9875 103.8 23.159374L103.53438 24.690624Q102.9875 24.596874 102.50313 24.596874Q101.70625 24.596874 101.3625 24.940624Q101.03438 25.284374 101.03438 26.221874L101.03438 27.175L103.06563 27.175L103.06563 28.55L101.03438 28.55L101.03438 37.55L99.28438 37.55ZM104.87813 25.253124L104.87813 23.2375L106.64375 23.2375L106.64375 25.253124L104.87813 25.253124ZM104.87813 37.55L104.87813 27.175L106.64375 27.175L106.64375 37.55L104.87813 37.55ZM112.70625 35.971874L112.95625 37.534374Q112.22188 37.690624 111.62813 37.690624Q110.675 37.690624 110.14375 37.39375Q109.62813 37.08125 109.40938 36.596874Q109.19063 36.096874 109.19063 34.51875L109.19063 28.55L107.90938 28.55L107.90938 27.175L109.19063 27.175L109.19063 24.6125L110.94063 23.55L110.94063 27.175L112.70625 27.175L112.70625 28.55L110.94063 28.55L110.94063 34.6125Q110.94063 35.3625 111.03438 35.58125Q111.12813 35.784374 111.33125 35.925Q111.55 36.05 111.94063 36.05Q112.22188 36.05 112.70625 35.971874ZM114.15938 34.45625L115.90938 34.175Q116.05 35.221874 116.72188 35.784374Q117.39375 36.33125 118.59688 36.33125Q119.8 36.33125 120.37813 35.846874Q120.97188 35.346874 120.97188 34.690624Q120.97188 34.096874 120.45625 33.753124Q120.09688 33.51875 118.65938 33.159374Q116.72188 32.659374 115.97188 32.315624Q115.2375 31.95625 114.84688 31.33125Q114.45625 30.690624 114.45625 29.925Q114.45625 29.2375 114.76875 28.64375Q115.09688 28.05 115.64375 27.659374Q116.05 27.3625 116.75313 27.159374Q117.47188 26.940624 118.28438 26.940624Q119.50313 26.940624 120.425 27.3Q121.34688 27.64375 121.78438 28.253124Q122.22188 28.846874 122.39375 29.846874L120.675 30.08125Q120.55 29.284374 119.9875 28.846874Q119.425 28.39375 118.40938 28.39375Q117.19063 28.39375 116.675 28.8Q116.15938 29.190624 116.15938 29.721874Q116.15938 30.065624 116.37813 30.346874Q116.58125 30.628124 117.05 30.815624Q117.31563 30.909374 118.59688 31.253124Q120.47188 31.753124 121.20625 32.08125Q121.94063 32.39375 122.3625 33.003124Q122.78438 33.596874 122.78438 34.503124Q122.78438 35.378124 122.26875 36.159374Q121.75313 36.940624 120.78438 37.3625Q119.81563 37.784374 118.59688 37.784374Q116.58125 37.784374 115.51875 36.940624Q114.45625 36.096874 114.15938 34.45625Z" fill-rule="nonzero"/></svg>